<svg width="40" height="40" viewBox="0 0 40 40" fill="none" xmlns="http://www.w3.org/2000/svg">
<circle cx="20" cy="20" r="19.5" fill="#61C4A1" stroke="black"/>
<path d="M23.4175 24.3051L23.419 24.3039L24.1813 23.6821C24.1816 23.6818 24.182 23.6815 24.1823 23.6812C24.6972 23.2668 25.1857 23.1966 25.6908 23.3182C26.232 23.4485 26.8146 23.8062 27.4477 24.3108C27.4479 24.3109 27.4481 24.3111 27.4483 24.3113L28.2268 24.9356L28.2277 24.9362C28.8749 25.453 29.2968 25.9022 29.4446 26.2858C29.5108 26.4577 29.5148 26.5989 29.4715 26.7318C29.4255 26.8729 29.3087 27.0571 29.0397 27.275L29.0392 27.2755L28.3466 27.8383L28.3303 27.8515L28.3151 27.8661C27.8816 28.2834 26.4499 29.4756 24.0627 29.4996H24.0626C21.1834 29.5288 18.0535 27.8527 14.7703 24.328L14.77 24.3277C11.4751 20.7964 10.1539 17.697 10.5768 15.0902L10.5768 15.09C10.9276 12.9208 12.3738 11.7782 12.889 11.4284L12.907 11.4162L12.9238 11.4025L13.6125 10.8416C13.6127 10.8414 13.613 10.8413 13.6132 10.8411C13.8808 10.6248 14.1016 10.5347 14.28 10.5087C14.4543 10.4833 14.6272 10.5132 14.8136 10.6045C15.2146 10.8008 15.6345 11.2573 16.0909 11.9183C16.0911 11.9186 16.0913 11.919 16.0916 11.9193L16.6446 12.729L16.645 12.7297C17.0952 13.3864 17.3856 13.9634 17.4461 14.4602C17.5002 14.9046 17.3769 15.3217 16.8679 15.735L16.8678 15.735L16.1006 16.3581C16.065 16.3865 16.0124 16.4194 15.9152 16.4802C15.9008 16.4892 15.8854 16.4989 15.8689 16.5092C15.755 16.5806 15.6103 16.6733 15.466 16.7894C15.1739 17.0244 14.8573 17.3757 14.7418 17.9075C14.6272 18.4345 14.7283 19.0541 15.0916 19.7923C15.454 20.5287 16.0939 21.4187 17.1164 22.5138C19.1374 24.6805 20.5427 25.3904 21.6186 25.3304C22.1705 25.2996 22.5762 25.068 22.8699 24.829C23.0136 24.712 23.1328 24.5912 23.2249 24.4962C23.236 24.4847 23.2464 24.4739 23.2563 24.4637C23.3391 24.3781 23.382 24.3338 23.4175 24.3051Z" fill="white" stroke="black"/>
</svg>
